<svg width="256" height="256" viewBox="0 0 256 256" fill="none" xmlns="http://www.w3.org/2000/svg">
  <!-- Background circle -->
  <circle cx="128" cy="128" r="120" fill="#0366d6" stroke="#024289" stroke-width="4"/>
  
  <!-- Git merge branches forming the happy face structure -->
  <!-- Left branch (forms left eye) -->
  <path d="M 60 80 Q 80 60 100 80" stroke="#ffffff" stroke-width="8" fill="none" stroke-linecap="round"/>
  <circle cx="60" cy="80" r="12" fill="#ffffff"/>
  <circle cx="100" cy="80" r="12" fill="#ffffff"/>
  
  <!-- Right branch (forms right eye) -->
  <path d="M 156 80 Q 176 60 196 80" stroke="#ffffff" stroke-width="8" fill="none" stroke-linecap="round"/>
  <circle cx="156" cy="80" r="12" fill="#ffffff"/>
  <circle cx="196" cy="80" r="12" fill="#ffffff"/>
  
  <!-- Main branch (forms the smile) -->
  <path d="M 80 160 Q 128 200 176 160" stroke="#ffffff" stroke-width="12" fill="none" stroke-linecap="round"/>
  <circle cx="80" cy="160" r="12" fill="#ffffff"/>
  <circle cx="176" cy="160" r="12" fill="#ffffff"/>
  
  <!-- Center merge point (nose) -->
  <circle cx="128" cy="120" r="8" fill="#ffffff"/>
  
  <!-- Connecting lines to show the merge -->
  <path d="M 80 90 L 120 112" stroke="#ffffff" stroke-width="4" stroke-linecap="round" opacity="0.7"/>
  <path d="M 176 90 L 136 112" stroke="#ffffff" stroke-width="4" stroke-linecap="round" opacity="0.7"/>
  <path d="M 128 128 L 128 152" stroke="#ffffff" stroke-width="4" stroke-linecap="round" opacity="0.7"/>
  
  <!-- Happy eyes (pupils) -->
  <circle cx="80" cy="80" r="4" fill="#0366d6"/>
  <circle cx="176" cy="80" r="4" fill="#0366d6"/>
  
  <!-- Highlight for a more polished look -->
  <ellipse cx="110" cy="90" rx="20" ry="15" fill="#ffffff" opacity="0.2"/>
</svg>